<svg xmlns="http://www.w3.org/2000/svg" xmlns:xlink="http://www.w3.org/1999/xlink" width="500" zoomAndPan="magnify" viewBox="0 0 375 374.999991" height="500" preserveAspectRatio="xMidYMid meet" version="1.0"><rect x="-37.5" width="450" fill="#ffffff" y="-37.499999" height="449.999989" fill-opacity="1"/><rect x="-37.5" width="450" fill="#5170ff" y="-37.499999" height="449.999989" fill-opacity="1"/><path fill="#333652" d="M 177.421875 183.125 C 178.882812 183.042969 180.800781 183 183.125 183 C 186.664062 183 190.035156 183.128906 193.148438 183.390625 C 193.21875 183.394531 193.289062 183.398438 193.359375 183.398438 C 193.890625 183.398438 194.371094 183.246094 194.808594 182.949219 C 195.242188 182.648438 195.554688 182.25 195.746094 181.757812 C 196.753906 179.128906 197.242188 175.039062 197.242188 169.253906 C 197.242188 164.851562 196.128906 161.476562 193.925781 159.214844 C 191.742188 156.96875 188.507812 155.726562 184.316406 155.515625 C 184.273438 155.511719 184.230469 155.511719 184.1875 155.511719 C 181.832031 155.511719 179.4375 155.601562 177.082031 155.785156 C 176.761719 155.808594 176.453125 155.890625 176.164062 156.03125 C 175.875 156.171875 175.621094 156.359375 175.402344 156.597656 C 175.183594 156.832031 175.015625 157.101562 174.898438 157.402344 C 174.78125 157.703125 174.722656 158.011719 174.722656 158.335938 L 174.722656 180.574219 C 174.722656 180.925781 174.792969 181.265625 174.933594 181.585938 C 175.070312 181.910156 175.269531 182.195312 175.523438 182.433594 C 175.78125 182.675781 176.074219 182.859375 176.402344 182.976562 C 176.734375 183.097656 177.074219 183.148438 177.425781 183.128906 Z M 179.828125 160.734375 C 181.261719 160.664062 182.695312 160.625 184.121094 160.625 C 186.953125 160.777344 189.023438 161.503906 190.269531 162.785156 C 191.507812 164.054688 192.136719 166.234375 192.136719 169.253906 C 192.136719 173.621094 191.835938 176.386719 191.472656 178.136719 C 188.824219 177.964844 186.027344 177.878906 183.121094 177.878906 C 181.921875 177.878906 180.820312 177.890625 179.828125 177.914062 Z M 179.828125 160.734375 " fill-opacity="1" fill-rule="nonzero"/><path fill="#333652" d="M 198.019531 196.027344 C 195.222656 193.765625 190.871094 192.664062 184.71875 192.664062 C 183.484375 192.664062 181.992188 192.753906 180.148438 192.933594 L 177.164062 193.066406 C 176.832031 193.078125 176.519531 193.15625 176.21875 193.289062 C 175.921875 193.425781 175.65625 193.613281 175.429688 193.851562 C 175.203125 194.089844 175.027344 194.363281 174.902344 194.667969 C 174.78125 194.972656 174.71875 195.289062 174.71875 195.621094 L 174.71875 217.328125 C 174.71875 217.621094 174.769531 217.910156 174.871094 218.1875 C 174.96875 218.464844 175.113281 218.71875 175.296875 218.949219 C 175.484375 219.175781 175.707031 219.367188 175.957031 219.519531 C 176.210938 219.671875 176.484375 219.777344 176.773438 219.835938 C 180.40625 220.523438 184.074219 220.847656 187.777344 220.816406 C 193.21875 220.816406 197.0625 220.316406 199.527344 219.285156 C 199.898438 219.128906 200.214844 218.898438 200.480469 218.59375 C 200.742188 218.285156 200.921875 217.9375 201.019531 217.542969 C 201.894531 214.242188 202.363281 210.886719 202.425781 207.472656 C 202.425781 202.242188 200.945312 198.394531 198.019531 196.027344 Z M 196.386719 214.945312 C 194.835938 215.34375 192.210938 215.703125 187.777344 215.703125 C 185.113281 215.714844 182.464844 215.539062 179.828125 215.171875 L 179.828125 198.070312 L 180.441406 198.042969 C 180.488281 198.039062 180.539062 198.035156 180.585938 198.03125 C 182.265625 197.863281 183.65625 197.78125 184.71875 197.78125 C 190.785156 197.78125 193.554688 198.992188 194.8125 200.007812 C 196.476562 201.355469 197.320312 203.867188 197.320312 207.472656 C 197.28125 210 196.96875 212.488281 196.386719 214.945312 Z M 196.386719 214.945312 " fill-opacity="1" fill-rule="nonzero"/><path fill="#333652" d="M 183.855469 113.144531 C 184.589844 113.144531 185.3125 113.039062 186.015625 112.824219 C 186.71875 112.609375 187.378906 112.296875 187.992188 111.886719 C 188.601562 111.476562 189.144531 110.984375 189.609375 110.414062 C 190.078125 109.84375 190.453125 109.21875 190.734375 108.539062 C 192.871094 108.714844 194.996094 108.976562 197.113281 109.324219 C 199.230469 109.671875 201.328125 110.105469 203.410156 110.621094 C 205.492188 111.136719 207.546875 111.738281 209.582031 112.417969 C 211.617188 113.101562 213.617188 113.863281 215.589844 114.707031 C 217.5625 115.550781 219.496094 116.472656 221.394531 117.46875 C 223.292969 118.46875 225.148438 119.542969 226.960938 120.691406 C 228.773438 121.839844 230.539062 123.058594 232.253906 124.347656 C 233.96875 125.636719 235.628906 126.996094 237.234375 128.417969 C 238.839844 129.839844 240.386719 131.328125 241.871094 132.875 C 243.359375 134.421875 244.78125 136.027344 246.140625 137.691406 C 247.5 139.351562 248.789062 141.066406 250.007812 142.832031 C 251.230469 144.597656 252.378906 146.410156 253.453125 148.269531 C 254.527344 150.125 255.527344 152.023438 256.449219 153.964844 C 257.375 155.902344 258.21875 157.875 258.984375 159.882812 C 259.75 161.886719 260.433594 163.921875 261.035156 165.984375 C 261.636719 168.046875 262.15625 170.128906 262.589844 172.230469 C 262.339844 172.375 262.097656 172.53125 261.863281 172.699219 C 261.628906 172.871094 261.40625 173.054688 261.195312 173.25 C 260.984375 173.449219 260.78125 173.65625 260.59375 173.875 C 260.40625 174.09375 260.234375 174.324219 260.070312 174.566406 C 259.910156 174.804688 259.765625 175.054688 259.632812 175.3125 C 259.5 175.570312 259.382812 175.832031 259.28125 176.105469 C 259.179688 176.375 259.09375 176.652344 259.023438 176.933594 C 258.957031 177.210938 258.902344 177.496094 258.867188 177.785156 C 258.828125 178.070312 258.808594 178.359375 258.808594 178.648438 C 258.804688 178.9375 258.816406 179.226562 258.847656 179.515625 C 258.878906 179.800781 258.925781 180.085938 258.992188 180.367188 C 259.054688 180.652344 259.132812 180.929688 259.230469 181.203125 C 259.324219 181.476562 259.4375 181.742188 259.566406 182 C 259.691406 182.261719 259.832031 182.511719 259.988281 182.757812 C 260.144531 183 260.316406 183.234375 260.5 183.457031 C 260.683594 183.679688 260.878906 183.890625 261.085938 184.09375 C 261.292969 184.292969 261.511719 184.480469 261.742188 184.65625 C 261.972656 184.832031 262.210938 184.992188 262.460938 185.140625 C 262.710938 185.289062 262.964844 185.421875 263.230469 185.539062 C 263.492188 185.65625 263.765625 185.757812 264.039062 185.84375 C 264.316406 185.929688 264.59375 186 264.878906 186.050781 C 265.164062 186.105469 265.449219 186.140625 265.738281 186.160156 C 266.027344 186.183594 266.3125 186.183594 266.601562 186.171875 C 266.890625 186.15625 267.179688 186.128906 267.464844 186.082031 C 267.75 186.03125 268.03125 185.96875 268.308594 185.890625 C 268.585938 185.808594 268.855469 185.714844 269.125 185.601562 C 269.390625 185.492188 269.648438 185.363281 269.902344 185.222656 C 270.152344 185.078125 270.394531 184.921875 270.628906 184.753906 C 270.863281 184.582031 271.085938 184.398438 271.296875 184.203125 C 271.511719 184.007812 271.710938 183.800781 271.898438 183.582031 C 272.085938 183.359375 272.261719 183.132812 272.421875 182.890625 C 272.585938 182.652344 272.730469 182.402344 272.863281 182.144531 C 272.996094 181.886719 273.113281 181.625 273.214844 181.355469 C 273.316406 181.082031 273.402344 180.808594 273.472656 180.527344 C 273.542969 180.246094 273.597656 179.960938 273.632812 179.675781 C 273.671875 179.386719 273.691406 179.097656 273.695312 178.808594 C 273.695312 178.519531 273.683594 178.230469 273.652344 177.945312 C 273.625 177.65625 273.578125 177.371094 273.511719 177.089844 C 273.449219 176.808594 273.371094 176.527344 273.273438 176.257812 C 273.179688 175.984375 273.066406 175.714844 272.941406 175.457031 C 272.816406 175.195312 272.671875 174.945312 272.519531 174.699219 C 272.363281 174.457031 272.191406 174.222656 272.007812 174 C 271.828125 173.777344 271.632812 173.5625 271.421875 173.363281 C 271.214844 173.160156 270.996094 172.972656 270.765625 172.796875 C 270.539062 172.621094 270.296875 172.460938 270.050781 172.3125 C 269.800781 172.164062 269.546875 172.03125 269.28125 171.914062 C 269.019531 171.796875 268.746094 171.695312 268.472656 171.605469 C 268.195312 171.519531 267.917969 171.449219 267.632812 171.398438 C 267.167969 169.152344 266.613281 166.933594 265.96875 164.734375 C 265.324219 162.53125 264.59375 160.363281 263.777344 158.222656 C 262.957031 156.082031 262.054688 153.976562 261.070312 151.910156 C 260.085938 149.839844 259.015625 147.816406 257.867188 145.832031 C 256.71875 143.851562 255.496094 141.917969 254.191406 140.035156 C 252.886719 138.152344 251.511719 136.320312 250.0625 134.546875 C 248.613281 132.773438 247.09375 131.0625 245.507812 129.410156 C 243.921875 127.761719 242.273438 126.175781 240.558594 124.65625 C 238.84375 123.136719 237.074219 121.6875 235.246094 120.3125 C 233.414062 118.9375 231.535156 117.636719 229.601562 116.410156 C 227.667969 115.183594 225.6875 114.039062 223.660156 112.972656 C 221.636719 111.90625 219.570312 110.921875 217.46875 110.023438 C 215.363281 109.121094 213.226562 108.304688 211.058594 107.578125 C 208.886719 106.847656 206.691406 106.207031 204.472656 105.65625 C 202.25 105.101562 200.011719 104.640625 197.753906 104.265625 C 195.496094 103.894531 193.226562 103.613281 190.949219 103.421875 C 190.808594 102.988281 190.632812 102.566406 190.417969 102.164062 C 190.199219 101.761719 189.949219 101.378906 189.664062 101.023438 C 189.378906 100.664062 189.0625 100.335938 188.71875 100.039062 C 188.371094 99.738281 188 99.476562 187.605469 99.242188 C 187.210938 99.011719 186.800781 98.820312 186.371094 98.664062 C 185.941406 98.511719 185.5 98.398438 185.046875 98.324219 C 184.597656 98.25 184.144531 98.21875 183.6875 98.226562 C 183.230469 98.238281 182.777344 98.289062 182.332031 98.382812 C 181.882812 98.476562 181.449219 98.609375 181.027344 98.785156 C 180.605469 98.957031 180.199219 99.167969 179.816406 99.417969 C 179.433594 99.664062 179.074219 99.945312 178.742188 100.257812 C 178.410156 100.574219 178.109375 100.914062 177.839844 101.285156 C 177.570312 101.652344 177.335938 102.046875 177.136719 102.457031 C 176.941406 102.871094 176.78125 103.296875 176.664062 103.738281 C 176.542969 104.179688 176.464844 104.628906 176.429688 105.085938 C 176.390625 105.542969 176.398438 105.996094 176.445312 106.453125 C 176.492188 106.90625 176.578125 107.355469 176.707031 107.792969 C 176.835938 108.234375 177.003906 108.65625 177.210938 109.066406 C 177.417969 109.472656 177.660156 109.859375 177.9375 110.222656 C 178.214844 110.585938 178.523438 110.917969 178.863281 111.226562 C 179.203125 111.53125 179.566406 111.804688 179.957031 112.046875 C 180.347656 112.285156 180.753906 112.484375 181.179688 112.648438 C 181.609375 112.8125 182.046875 112.9375 182.496094 113.019531 C 182.945312 113.105469 183.398438 113.144531 183.855469 113.144531 Z M 266.246094 181.066406 C 265.933594 181.066406 265.636719 181.007812 265.347656 180.886719 C 265.0625 180.769531 264.808594 180.601562 264.589844 180.378906 C 264.371094 180.160156 264.203125 179.90625 264.082031 179.621094 C 263.964844 179.332031 263.90625 179.035156 263.90625 178.722656 C 263.90625 178.410156 263.964844 178.113281 264.082031 177.824219 C 264.203125 177.539062 264.371094 177.285156 264.589844 177.066406 C 264.808594 176.84375 265.0625 176.675781 265.347656 176.554688 C 265.636719 176.4375 265.933594 176.378906 266.246094 176.378906 C 266.554688 176.378906 266.855469 176.4375 267.140625 176.554688 C 267.425781 176.675781 267.679688 176.84375 267.898438 177.066406 C 268.121094 177.285156 268.289062 177.539062 268.40625 177.824219 C 268.527344 178.113281 268.585938 178.410156 268.585938 178.722656 C 268.585938 179.03125 268.527344 179.332031 268.40625 179.621094 C 268.289062 179.90625 268.117188 180.160156 267.898438 180.378906 C 267.679688 180.597656 267.425781 180.769531 267.140625 180.886719 C 266.855469 181.007812 266.554688 181.066406 266.246094 181.066406 Z M 183.855469 103.339844 C 184.164062 103.339844 184.460938 103.402344 184.75 103.519531 C 185.035156 103.640625 185.289062 103.808594 185.507812 104.027344 C 185.726562 104.25 185.898438 104.5 186.015625 104.789062 C 186.136719 105.078125 186.195312 105.375 186.195312 105.6875 C 186.195312 105.996094 186.136719 106.296875 186.015625 106.582031 C 185.898438 106.871094 185.726562 107.125 185.507812 107.34375 C 185.289062 107.5625 185.035156 107.734375 184.75 107.851562 C 184.460938 107.972656 184.164062 108.03125 183.855469 108.03125 C 183.542969 108.03125 183.246094 107.972656 182.957031 107.851562 C 182.671875 107.734375 182.417969 107.5625 182.199219 107.34375 C 181.980469 107.125 181.808594 106.871094 181.691406 106.582031 C 181.574219 106.296875 181.511719 105.996094 181.511719 105.6875 C 181.511719 105.375 181.574219 105.078125 181.691406 104.789062 C 181.8125 104.503906 181.980469 104.25 182.199219 104.03125 C 182.417969 103.808594 182.671875 103.640625 182.957031 103.519531 C 183.246094 103.402344 183.542969 103.34375 183.855469 103.339844 Z M 183.855469 103.339844 " fill-opacity="1" fill-rule="nonzero"/><path fill="#333652" d="M 255.332031 117.230469 C 253.96875 115.863281 252.566406 114.539062 251.125 113.25 C 249.683594 111.964844 248.207031 110.71875 246.695312 109.519531 C 245.183594 108.316406 243.636719 107.160156 242.058594 106.046875 C 240.480469 104.933594 238.875 103.863281 237.234375 102.84375 C 235.59375 101.824219 233.929688 100.851562 232.234375 99.925781 C 230.539062 99 228.820312 98.125 227.074219 97.296875 C 225.328125 96.46875 223.5625 95.695312 221.773438 94.96875 C 219.984375 94.242188 218.175781 93.570312 216.347656 92.949219 C 214.519531 92.328125 212.675781 91.757812 210.816406 91.242188 C 208.953125 90.726562 207.082031 90.265625 205.195312 89.855469 C 203.308594 89.449219 201.410156 89.09375 199.503906 88.796875 C 197.597656 88.496094 195.683594 88.253906 193.761719 88.0625 C 191.839844 87.875 189.917969 87.738281 187.988281 87.660156 C 186.058594 87.582031 184.128906 87.558594 182.199219 87.589844 C 180.269531 87.621094 178.34375 87.707031 176.417969 87.847656 C 174.492188 87.992188 172.574219 88.1875 170.660156 88.441406 C 168.746094 88.695312 166.839844 89 164.945312 89.363281 C 163.050781 89.722656 161.164062 90.140625 159.292969 90.609375 C 157.417969 91.078125 155.5625 91.601562 153.71875 92.179688 C 151.878906 92.753906 150.054688 93.382812 148.246094 94.066406 C 146.441406 94.746094 144.65625 95.476562 142.890625 96.261719 C 141.125 97.046875 139.382812 97.878906 137.667969 98.761719 C 135.949219 99.644531 134.261719 100.578125 132.597656 101.558594 C 130.933594 102.539062 129.296875 103.566406 127.695312 104.640625 C 126.089844 105.714844 124.515625 106.832031 122.976562 107.996094 C 121.433594 109.160156 119.929688 110.367188 118.457031 111.621094 C 116.984375 112.871094 115.550781 114.164062 114.152344 115.496094 C 112.753906 116.828125 111.394531 118.203125 110.074219 119.613281 C 108.753906 121.023438 107.476562 122.472656 106.242188 123.957031 C 105.003906 125.441406 103.8125 126.957031 102.660156 128.511719 C 101.511719 130.066406 100.40625 131.648438 99.347656 133.265625 C 98.289062 134.882812 97.277344 136.527344 96.3125 138.203125 C 95.347656 139.875 94.429688 141.578125 93.5625 143.304688 C 92.695312 145.03125 91.875 146.78125 91.109375 148.554688 C 90.339844 150.328125 89.625 152.125 88.960938 153.9375 C 88.292969 155.753906 87.679688 157.585938 87.121094 159.4375 C 86.558594 161.285156 86.054688 163.152344 85.601562 165.03125 C 85.144531 166.910156 84.746094 168.800781 84.402344 170.703125 C 84.054688 172.605469 83.765625 174.515625 83.527344 176.433594 C 83.292969 178.351562 83.109375 180.277344 82.984375 182.207031 C 82.859375 184.136719 82.789062 186.066406 82.769531 188 C 82.753906 189.933594 82.796875 191.867188 82.890625 193.796875 C 82.984375 195.726562 83.132812 197.65625 83.339844 199.578125 C 83.542969 201.5 83.804688 203.414062 84.117188 205.324219 C 84.433594 207.230469 84.800781 209.128906 85.222656 211.011719 C 85.648438 212.898438 86.125 214.773438 86.652344 216.632812 C 87.183594 218.492188 87.765625 220.332031 88.402344 222.160156 C 89.035156 223.984375 89.722656 225.789062 90.460938 227.578125 C 91.203125 229.363281 91.992188 231.125 92.828125 232.867188 C 93.667969 234.609375 94.558594 236.324219 95.496094 238.015625 C 96.433594 239.703125 97.417969 241.367188 98.449219 243 C 99.484375 244.632812 100.5625 246.234375 101.6875 247.808594 C 102.8125 249.378906 103.980469 250.917969 105.191406 252.421875 C 106.402344 253.925781 107.65625 255.394531 108.953125 256.828125 C 110.25 258.257812 111.585938 259.652344 112.960938 261.007812 C 114.339844 262.367188 115.753906 263.679688 117.203125 264.957031 C 118.65625 266.230469 120.140625 267.460938 121.664062 268.652344 C 123.183594 269.839844 124.738281 270.984375 126.324219 272.085938 C 127.914062 273.1875 129.53125 274.242188 131.175781 275.25 C 132.824219 276.253906 134.5 277.214844 136.203125 278.125 C 137.90625 279.039062 139.632812 279.898438 141.382812 280.710938 C 143.132812 281.523438 144.90625 282.285156 146.703125 282.996094 C 148.5 283.707031 150.3125 284.367188 152.144531 284.972656 C 153.976562 285.578125 155.828125 286.132812 157.691406 286.632812 C 159.554688 287.132812 161.433594 287.578125 163.324219 287.972656 C 165.210938 288.363281 167.113281 288.703125 169.019531 288.988281 C 170.929688 289.269531 172.847656 289.5 174.769531 289.671875 C 176.691406 289.847656 178.617188 289.964844 180.546875 290.027344 C 182.476562 290.089844 184.40625 290.101562 186.335938 290.050781 C 188.265625 290.003906 190.191406 289.902344 192.113281 289.742188 C 194.039062 289.585938 195.957031 289.371094 197.867188 289.105469 C 199.777344 288.835938 201.679688 288.515625 203.574219 288.136719 C 205.46875 287.761719 207.347656 287.328125 209.21875 286.84375 C 211.085938 286.359375 212.9375 285.820312 214.777344 285.230469 C 216.613281 284.636719 218.433594 283.992188 220.234375 283.296875 C 222.035156 282.601562 223.816406 281.855469 225.574219 281.058594 C 227.332031 280.257812 229.066406 279.410156 230.773438 278.515625 C 232.484375 277.617188 234.167969 276.671875 235.824219 275.675781 C 237.476562 274.683594 239.105469 273.644531 240.699219 272.554688 C 242.296875 271.46875 243.859375 270.335938 245.390625 269.160156 C 246.921875 267.980469 248.417969 266.761719 249.878906 265.5 C 251.34375 264.238281 252.765625 262.933594 254.152344 261.589844 C 255.539062 260.242188 256.886719 258.859375 258.195312 257.4375 C 259.503906 256.015625 260.769531 254.558594 261.996094 253.0625 C 263.21875 251.570312 264.398438 250.039062 265.535156 248.476562 C 266.671875 246.917969 267.765625 245.324219 268.8125 243.699219 C 269.855469 242.074219 270.855469 240.417969 271.808594 238.738281 C 272.757812 237.054688 273.660156 235.347656 274.515625 233.613281 C 275.367188 231.878906 276.171875 230.121094 276.925781 228.339844 C 277.679688 226.5625 278.378906 224.761719 279.03125 222.941406 C 279.679688 221.121094 280.277344 219.28125 280.824219 217.429688 C 281.367188 215.574219 281.859375 213.703125 282.300781 211.820312 C 282.738281 209.9375 283.121094 208.042969 283.453125 206.140625 C 283.78125 204.234375 284.058594 202.320312 284.277344 200.402344 C 284.496094 198.480469 284.664062 196.554688 284.773438 194.625 C 284.882812 192.695312 284.941406 190.761719 284.941406 188.828125 C 284.949219 185.511719 284.792969 182.203125 284.476562 178.898438 C 284.160156 175.597656 283.679688 172.320312 283.039062 169.066406 C 282.394531 165.808594 281.59375 162.59375 280.636719 159.421875 C 279.675781 156.246094 278.5625 153.125 277.296875 150.058594 C 276.027344 146.996094 274.613281 144 273.050781 141.074219 C 271.488281 138.152344 269.785156 135.3125 267.941406 132.554688 C 266.097656 129.800781 264.121094 127.140625 262.015625 124.582031 C 259.90625 122.019531 257.679688 119.570312 255.332031 117.230469 Z M 183.855469 284.96875 C 130.929688 284.96875 87.875 241.839844 87.875 188.828125 C 87.875 135.816406 130.929688 92.691406 183.855469 92.691406 C 236.777344 92.691406 279.832031 135.816406 279.832031 188.828125 C 279.832031 241.839844 236.777344 284.96875 183.855469 284.96875 Z M 183.855469 284.96875 " fill-opacity="1" fill-rule="nonzero"/><path fill="#333652" d="M 183.855469 264.511719 C 183.117188 264.511719 182.398438 264.621094 181.691406 264.835938 C 180.988281 265.050781 180.328125 265.363281 179.71875 265.773438 C 179.105469 266.183594 178.566406 266.671875 178.097656 267.242188 C 177.628906 267.8125 177.257812 268.441406 176.972656 269.121094 C 174.835938 268.945312 172.710938 268.683594 170.59375 268.332031 C 168.476562 267.984375 166.378906 267.554688 164.296875 267.039062 C 162.214844 266.519531 160.160156 265.921875 158.125 265.238281 C 156.09375 264.558594 154.089844 263.792969 152.117188 262.949219 C 150.144531 262.109375 148.210938 261.1875 146.3125 260.1875 C 144.414062 259.1875 142.558594 258.117188 140.746094 256.96875 C 138.933594 255.820312 137.167969 254.601562 135.453125 253.308594 C 133.742188 252.019531 132.078125 250.664062 130.472656 249.242188 C 128.867188 247.816406 127.320312 246.332031 125.835938 244.785156 C 124.347656 243.234375 122.925781 241.628906 121.566406 239.96875 C 120.210938 238.304688 118.921875 236.59375 117.699219 234.824219 C 116.480469 233.058594 115.332031 231.246094 114.253906 229.390625 C 113.179688 227.53125 112.179688 225.632812 111.257812 223.695312 C 110.332031 221.753906 109.488281 219.78125 108.722656 217.777344 C 107.960938 215.769531 107.277344 213.734375 106.671875 211.675781 C 106.070312 209.613281 105.550781 207.53125 105.117188 205.425781 C 105.367188 205.285156 105.613281 205.128906 105.84375 204.957031 C 106.078125 204.789062 106.300781 204.605469 106.511719 204.40625 C 106.726562 204.210938 106.925781 204.003906 107.113281 203.78125 C 107.300781 203.5625 107.476562 203.332031 107.636719 203.09375 C 107.796875 202.851562 107.945312 202.605469 108.078125 202.347656 C 108.207031 202.089844 108.324219 201.824219 108.425781 201.554688 C 108.527344 201.28125 108.613281 201.007812 108.683594 200.726562 C 108.753906 200.445312 108.804688 200.160156 108.84375 199.875 C 108.878906 199.585938 108.898438 199.300781 108.902344 199.007812 C 108.902344 198.71875 108.890625 198.429688 108.859375 198.144531 C 108.828125 197.855469 108.78125 197.570312 108.71875 197.289062 C 108.65625 197.007812 108.574219 196.730469 108.476562 196.457031 C 108.382812 196.183594 108.269531 195.917969 108.144531 195.65625 C 108.015625 195.398438 107.875 195.144531 107.71875 194.902344 C 107.5625 194.660156 107.394531 194.425781 107.210938 194.199219 C 107.027344 193.976562 106.832031 193.765625 106.621094 193.566406 C 106.414062 193.363281 106.195312 193.175781 105.964844 193 C 105.734375 192.824219 105.496094 192.664062 105.246094 192.515625 C 105 192.371094 104.742188 192.238281 104.480469 192.121094 C 104.214844 192.003906 103.945312 191.898438 103.667969 191.8125 C 103.394531 191.726562 103.113281 191.660156 102.828125 191.605469 C 102.546875 191.550781 102.257812 191.515625 101.96875 191.496094 C 101.683594 191.476562 101.394531 191.472656 101.105469 191.484375 C 100.816406 191.5 100.53125 191.53125 100.246094 191.578125 C 99.960938 191.625 99.679688 191.6875 99.402344 191.769531 C 99.125 191.847656 98.851562 191.945312 98.585938 192.054688 C 98.316406 192.167969 98.058594 192.292969 97.808594 192.4375 C 97.554688 192.578125 97.3125 192.734375 97.078125 192.902344 C 96.84375 193.074219 96.621094 193.257812 96.410156 193.453125 C 96.199219 193.648438 95.996094 193.859375 95.808594 194.078125 C 95.621094 194.296875 95.445312 194.527344 95.285156 194.765625 C 95.125 195.007812 94.976562 195.253906 94.84375 195.511719 C 94.710938 195.769531 94.59375 196.035156 94.492188 196.304688 C 94.390625 196.574219 94.304688 196.851562 94.234375 197.132812 C 94.164062 197.414062 94.109375 197.695312 94.074219 197.984375 C 94.039062 198.269531 94.015625 198.558594 94.015625 198.847656 C 94.011719 199.136719 94.023438 199.425781 94.054688 199.714844 C 94.085938 200 94.132812 200.285156 94.195312 200.570312 C 94.257812 200.851562 94.335938 201.128906 94.433594 201.402344 C 94.527344 201.675781 94.640625 201.941406 94.765625 202.203125 C 94.894531 202.460938 95.035156 202.714844 95.191406 202.957031 C 95.34375 203.199219 95.515625 203.433594 95.699219 203.660156 C 95.882812 203.882812 96.078125 204.09375 96.285156 204.296875 C 96.492188 204.496094 96.710938 204.6875 96.941406 204.859375 C 97.171875 205.035156 97.410156 205.199219 97.65625 205.347656 C 97.90625 205.492188 98.164062 205.625 98.425781 205.746094 C 98.691406 205.863281 98.960938 205.964844 99.234375 206.050781 C 99.511719 206.136719 99.789062 206.207031 100.074219 206.261719 C 100.539062 208.503906 101.097656 210.726562 101.738281 212.925781 C 102.382812 215.125 103.113281 217.296875 103.933594 219.4375 C 104.75 221.578125 105.652344 223.679688 106.636719 225.75 C 107.625 227.816406 108.691406 229.84375 109.839844 231.824219 C 110.988281 233.808594 112.214844 235.738281 113.515625 237.625 C 114.820312 239.507812 116.195312 241.335938 117.644531 243.109375 C 119.09375 244.882812 120.613281 246.597656 122.199219 248.246094 C 123.785156 249.898438 125.433594 251.484375 127.148438 253.003906 C 128.863281 254.523438 130.632812 255.96875 132.464844 257.347656 C 134.292969 258.722656 136.175781 260.023438 138.109375 261.25 C 140.042969 262.472656 142.019531 263.621094 144.046875 264.6875 C 146.070312 265.753906 148.136719 266.738281 150.238281 267.636719 C 152.34375 268.539062 154.480469 269.351562 156.648438 270.082031 C 158.820312 270.808594 161.015625 271.449219 163.234375 272.003906 C 165.457031 272.554688 167.695312 273.019531 169.953125 273.390625 C 172.210938 273.765625 174.480469 274.046875 176.757812 274.234375 C 176.898438 274.671875 177.074219 275.089844 177.289062 275.496094 C 177.507812 275.898438 177.757812 276.277344 178.042969 276.636719 C 178.328125 276.992188 178.644531 277.320312 178.988281 277.621094 C 179.335938 277.917969 179.707031 278.183594 180.101562 278.414062 C 180.496094 278.644531 180.90625 278.839844 181.335938 278.992188 C 181.765625 279.148438 182.207031 279.261719 182.660156 279.335938 C 183.109375 279.410156 183.5625 279.441406 184.019531 279.429688 C 184.476562 279.421875 184.929688 279.367188 185.375 279.273438 C 185.824219 279.179688 186.257812 279.046875 186.679688 278.875 C 187.105469 278.699219 187.507812 278.488281 187.890625 278.242188 C 188.273438 277.992188 188.632812 277.710938 188.964844 277.398438 C 189.296875 277.085938 189.597656 276.742188 189.867188 276.375 C 190.136719 276.003906 190.371094 275.613281 190.570312 275.199219 C 190.765625 274.789062 190.925781 274.359375 191.042969 273.917969 C 191.164062 273.476562 191.242188 273.027344 191.277344 272.574219 C 191.316406 272.117188 191.308594 271.660156 191.261719 271.207031 C 191.214844 270.75 191.128906 270.304688 191 269.863281 C 190.871094 269.425781 190.703125 269 190.496094 268.59375 C 190.289062 268.1875 190.046875 267.800781 189.769531 267.4375 C 189.492188 267.074219 189.183594 266.738281 188.84375 266.433594 C 188.503906 266.125 188.140625 265.851562 187.75 265.613281 C 187.359375 265.375 186.953125 265.171875 186.527344 265.007812 C 186.101562 264.84375 185.664062 264.71875 185.214844 264.636719 C 184.765625 264.554688 184.3125 264.511719 183.855469 264.511719 Z M 101.460938 196.589844 C 101.773438 196.589844 102.070312 196.648438 102.359375 196.769531 C 102.644531 196.886719 102.898438 197.058594 103.117188 197.277344 C 103.335938 197.496094 103.507812 197.75 103.625 198.039062 C 103.742188 198.324219 103.804688 198.625 103.804688 198.933594 C 103.804688 199.246094 103.742188 199.546875 103.625 199.832031 C 103.507812 200.121094 103.335938 200.375 103.117188 200.59375 C 102.898438 200.8125 102.644531 200.984375 102.359375 201.101562 C 102.070312 201.21875 101.773438 201.28125 101.460938 201.28125 C 101.152344 201.28125 100.855469 201.21875 100.566406 201.101562 C 100.28125 200.984375 100.027344 200.8125 99.808594 200.59375 C 99.589844 200.375 99.417969 200.121094 99.300781 199.832031 C 99.179688 199.546875 99.121094 199.246094 99.121094 198.933594 C 99.121094 198.625 99.183594 198.324219 99.300781 198.039062 C 99.417969 197.75 99.589844 197.5 99.808594 197.277344 C 100.027344 197.058594 100.28125 196.890625 100.566406 196.769531 C 100.855469 196.652344 101.152344 196.589844 101.460938 196.589844 Z M 183.855469 274.316406 C 183.542969 274.316406 183.246094 274.257812 182.957031 274.136719 C 182.671875 274.019531 182.417969 273.851562 182.199219 273.628906 C 181.980469 273.410156 181.808594 273.15625 181.691406 272.871094 C 181.574219 272.582031 181.511719 272.28125 181.511719 271.972656 C 181.511719 271.660156 181.574219 271.363281 181.691406 271.074219 C 181.808594 270.789062 181.980469 270.535156 182.199219 270.3125 C 182.417969 270.09375 182.671875 269.925781 182.957031 269.804688 C 183.246094 269.6875 183.542969 269.628906 183.855469 269.628906 C 184.164062 269.628906 184.460938 269.6875 184.75 269.804688 C 185.035156 269.925781 185.289062 270.09375 185.507812 270.3125 C 185.726562 270.535156 185.898438 270.789062 186.015625 271.074219 C 186.136719 271.363281 186.195312 271.660156 186.195312 271.972656 C 186.195312 272.28125 186.132812 272.582031 186.015625 272.867188 C 185.898438 273.15625 185.726562 273.410156 185.507812 273.628906 C 185.289062 273.847656 185.035156 274.019531 184.75 274.136719 C 184.460938 274.257812 184.164062 274.316406 183.855469 274.316406 Z M 183.855469 274.316406 " fill-opacity="1" fill-rule="nonzero"/><path fill="#333652" d="M 266.246094 191.476562 C 265.480469 191.476562 264.738281 191.59375 264.011719 191.824219 C 263.28125 192.054688 262.605469 192.386719 261.980469 192.828125 C 261.359375 193.265625 260.8125 193.785156 260.347656 194.394531 C 259.882812 195 259.519531 195.660156 259.257812 196.378906 L 247.640625 196.378906 C 248.34375 190.335938 248.207031 184.3125 247.222656 178.3125 L 247.222656 178.308594 C 246.546875 174.273438 245.496094 170.339844 244.074219 166.503906 C 242.652344 162.667969 240.882812 159.003906 238.765625 155.503906 C 236.648438 152.007812 234.222656 148.738281 231.484375 145.699219 C 228.75 142.664062 225.753906 139.910156 222.496094 137.441406 C 222.574219 137.164062 222.636719 136.878906 222.679688 136.59375 C 222.722656 136.308594 222.753906 136.019531 222.765625 135.730469 C 222.773438 135.441406 222.769531 135.152344 222.746094 134.863281 C 222.726562 134.574219 222.6875 134.289062 222.628906 134.003906 C 222.574219 133.71875 222.503906 133.441406 222.414062 133.164062 C 222.328125 132.890625 222.222656 132.621094 222.101562 132.355469 C 221.984375 132.09375 221.847656 131.835938 221.699219 131.589844 C 221.550781 131.339844 221.386719 131.101562 221.210938 130.871094 C 221.035156 130.644531 220.84375 130.425781 220.640625 130.21875 C 220.441406 130.011719 220.226562 129.816406 220 129.636719 C 219.777344 129.453125 219.542969 129.285156 219.296875 129.132812 C 219.054688 128.976562 218.800781 128.835938 218.539062 128.710938 C 218.277344 128.585938 218.011719 128.476562 217.738281 128.382812 C 217.464844 128.289062 217.1875 128.210938 216.90625 128.148438 C 216.621094 128.089844 216.335938 128.042969 216.050781 128.015625 C 215.761719 127.988281 215.472656 127.976562 215.183594 127.980469 C 214.894531 127.984375 214.609375 128.007812 214.320312 128.046875 C 214.035156 128.085938 213.75 128.140625 213.472656 128.214844 C 213.191406 128.285156 212.917969 128.371094 212.648438 128.476562 C 212.378906 128.582031 212.113281 128.699219 211.859375 128.835938 C 211.601562 128.96875 211.355469 129.117188 211.117188 129.28125 C 210.878906 129.445312 210.648438 129.621094 210.433594 129.8125 C 210.214844 130.003906 210.007812 130.203125 209.8125 130.417969 C 209.617188 130.632812 209.4375 130.859375 209.269531 131.09375 C 209.101562 131.328125 208.945312 131.574219 208.804688 131.828125 C 208.664062 132.078125 208.542969 132.339844 208.429688 132.609375 C 208.320312 132.875 208.226562 133.148438 208.148438 133.429688 C 208.070312 133.707031 208.011719 133.988281 207.964844 134.277344 C 207.921875 134.5625 207.890625 134.847656 207.878906 135.140625 C 207.867188 135.429688 207.875 135.71875 207.894531 136.003906 C 207.917969 136.292969 207.957031 136.582031 208.011719 136.863281 C 208.066406 137.148438 208.136719 137.429688 208.226562 137.707031 C 208.3125 137.980469 208.417969 138.25 208.535156 138.515625 C 208.65625 138.777344 208.789062 139.035156 208.9375 139.28125 C 209.085938 139.53125 209.25 139.769531 209.425781 140 C 209.605469 140.226562 209.792969 140.445312 209.996094 140.652344 C 210.199219 140.859375 210.410156 141.054688 210.636719 141.238281 C 210.859375 141.417969 211.09375 141.585938 211.339844 141.742188 C 211.582031 141.898438 211.835938 142.039062 212.097656 142.164062 C 212.355469 142.289062 212.625 142.398438 212.898438 142.492188 C 213.171875 142.585938 213.449219 142.664062 213.730469 142.726562 C 214.011719 142.789062 214.296875 142.832031 214.585938 142.863281 C 214.875 142.890625 215.160156 142.902344 215.449219 142.898438 C 215.738281 142.894531 216.027344 142.871094 216.3125 142.832031 C 216.601562 142.792969 216.882812 142.738281 217.164062 142.667969 C 217.445312 142.597656 217.71875 142.507812 217.988281 142.40625 C 218.257812 142.300781 218.523438 142.183594 218.777344 142.046875 C 219.035156 141.914062 219.28125 141.765625 219.519531 141.601562 C 222.300781 143.71875 224.878906 146.066406 227.25 148.636719 C 229.617188 151.210938 231.746094 153.972656 233.632812 156.917969 C 235.515625 159.867188 237.128906 162.957031 238.472656 166.191406 C 239.8125 169.421875 240.863281 172.746094 241.621094 176.164062 L 219.160156 176.164062 C 220.1875 172.917969 220.679688 169.59375 220.640625 166.191406 C 220.640625 157.21875 217.289062 150.535156 210.683594 146.320312 C 208.25 144.820312 205.660156 143.671875 202.910156 142.882812 L 202.910156 130.125 C 202.910156 129.789062 202.847656 129.460938 202.71875 129.148438 C 202.585938 128.835938 202.402344 128.558594 202.164062 128.316406 C 201.925781 128.078125 201.648438 127.894531 201.335938 127.765625 C 201.023438 127.632812 200.695312 127.570312 200.359375 127.570312 L 188.207031 127.570312 C 187.867188 127.570312 187.542969 127.632812 187.230469 127.765625 C 186.917969 127.894531 186.640625 128.078125 186.402344 128.316406 C 186.164062 128.558594 185.976562 128.835938 185.847656 129.148438 C 185.71875 129.460938 185.652344 129.789062 185.652344 130.125 L 185.652344 140.394531 C 184.476562 140.355469 183.273438 140.332031 182.054688 140.328125 L 182.054688 130.125 C 182.054688 129.789062 181.988281 129.460938 181.859375 129.148438 C 181.730469 128.835938 181.546875 128.558594 181.304688 128.316406 C 181.066406 128.078125 180.789062 127.894531 180.476562 127.765625 C 180.164062 127.632812 179.839844 127.570312 179.5 127.570312 L 167.347656 127.570312 C 167.011719 127.570312 166.683594 127.632812 166.371094 127.765625 C 166.058594 127.894531 165.78125 128.078125 165.542969 128.316406 C 165.304688 128.558594 165.117188 128.835938 164.988281 129.148438 C 164.859375 129.460938 164.796875 129.789062 164.796875 130.125 L 164.796875 141.015625 C 158.515625 141.484375 151.660156 142.199219 144.375 143.148438 C 144.082031 143.183594 143.804688 143.269531 143.542969 143.40625 C 143.28125 143.539062 143.046875 143.714844 142.847656 143.925781 C 142.644531 144.140625 142.484375 144.382812 142.363281 144.652344 C 142.246094 144.921875 142.175781 145.207031 142.15625 145.5 L 141.355469 156.550781 C 141.320312 157.046875 141.421875 157.511719 141.65625 157.949219 C 141.894531 158.386719 142.226562 158.726562 142.660156 158.96875 L 149.574219 162.832031 C 149.660156 162.878906 149.75 162.921875 149.84375 162.960938 C 150.382812 163.148438 150.875 163.425781 151.3125 163.792969 C 151.378906 164.003906 151.585938 164.863281 151.585938 167.257812 L 151.585938 176.167969 L 126.085938 176.167969 C 126.773438 173.023438 127.710938 169.953125 128.898438 166.964844 C 129.113281 166.980469 129.324219 166.996094 129.542969 166.996094 C 130.113281 166.996094 130.675781 166.933594 131.234375 166.804688 C 131.792969 166.675781 132.328125 166.484375 132.839844 166.230469 C 133.355469 165.980469 133.832031 165.671875 134.273438 165.308594 C 134.71875 164.945312 135.113281 164.539062 135.460938 164.082031 C 135.808594 163.628906 136.101562 163.140625 136.339844 162.621094 C 136.578125 162.097656 136.753906 161.558594 136.863281 160.996094 C 136.976562 160.433594 137.023438 159.867188 137.007812 159.296875 C 136.988281 158.722656 136.90625 158.160156 136.761719 157.605469 C 136.613281 157.050781 136.40625 156.523438 136.136719 156.015625 C 135.867188 155.511719 135.546875 155.042969 135.167969 154.609375 C 134.792969 154.179688 134.375 153.796875 133.910156 153.460938 C 133.445312 153.128906 132.949219 152.851562 132.421875 152.628906 C 131.894531 152.410156 131.347656 152.253906 130.78125 152.15625 C 130.21875 152.0625 129.652344 152.035156 129.082031 152.070312 C 128.511719 152.105469 127.949219 152.207031 127.402344 152.371094 C 126.855469 152.535156 126.335938 152.761719 125.839844 153.046875 C 125.34375 153.332031 124.886719 153.671875 124.46875 154.0625 C 124.046875 154.453125 123.679688 154.882812 123.359375 155.359375 C 123.042969 155.835938 122.78125 156.339844 122.578125 156.875 C 122.375 157.414062 122.238281 157.964844 122.160156 158.53125 C 122.085938 159.097656 122.074219 159.667969 122.128906 160.238281 C 122.183594 160.808594 122.300781 161.367188 122.484375 161.910156 C 122.664062 162.453125 122.90625 162.964844 123.207031 163.453125 C 123.507812 163.941406 123.859375 164.386719 124.265625 164.792969 C 122.777344 168.476562 121.644531 172.269531 120.867188 176.164062 L 108.445312 176.164062 C 107.816406 174.449219 106.710938 173.140625 105.125 172.234375 C 110.484375 146.640625 128.46875 124.789062 152.558594 114.578125 C 152.746094 114.796875 152.945312 115.003906 153.15625 115.199219 C 153.367188 115.394531 153.589844 115.578125 153.824219 115.75 C 154.058594 115.917969 154.300781 116.074219 154.550781 116.214844 C 154.800781 116.355469 155.0625 116.484375 155.328125 116.59375 C 155.59375 116.707031 155.863281 116.800781 156.140625 116.882812 C 156.417969 116.960938 156.699219 117.023438 156.984375 117.070312 C 157.265625 117.117188 157.554688 117.148438 157.839844 117.164062 C 158.128906 117.175781 158.417969 117.175781 158.703125 117.152344 C 158.992188 117.132812 159.277344 117.097656 159.5625 117.046875 C 159.84375 116.992188 160.125 116.921875 160.398438 116.835938 C 160.675781 116.75 160.945312 116.652344 161.207031 116.535156 C 161.472656 116.417969 161.726562 116.285156 161.976562 116.136719 C 162.222656 115.992188 162.460938 115.832031 162.691406 115.65625 C 162.921875 115.480469 163.140625 115.296875 163.347656 115.09375 C 163.554688 114.894531 163.753906 114.683594 163.933594 114.460938 C 164.117188 114.238281 164.289062 114.003906 164.445312 113.761719 C 164.601562 113.519531 164.742188 113.269531 164.871094 113.011719 C 164.996094 112.75 165.109375 112.484375 165.207031 112.214844 C 165.300781 111.941406 165.382812 111.664062 165.445312 111.382812 C 165.511719 111.101562 165.558594 110.816406 165.589844 110.53125 C 165.621094 110.242188 165.636719 109.957031 165.632812 109.667969 C 165.632812 109.378906 165.613281 109.089844 165.578125 108.804688 C 165.542969 108.515625 165.492188 108.234375 165.421875 107.953125 C 165.355469 107.671875 165.269531 107.398438 165.167969 107.125 C 165.070312 106.855469 164.953125 106.59375 164.820312 106.335938 C 164.691406 106.078125 164.546875 105.828125 164.386719 105.589844 C 164.226562 105.347656 164.050781 105.117188 163.867188 104.898438 C 163.679688 104.679688 163.480469 104.46875 163.269531 104.273438 C 163.058594 104.074219 162.835938 103.890625 162.605469 103.722656 C 162.375 103.550781 162.132812 103.394531 161.882812 103.25 C 161.632812 103.105469 161.375 102.980469 161.109375 102.867188 C 160.84375 102.753906 160.570312 102.65625 160.296875 102.574219 C 160.019531 102.492188 159.738281 102.425781 159.453125 102.378906 C 159.171875 102.328125 158.882812 102.296875 158.597656 102.28125 C 158.308594 102.265625 158.019531 102.269531 157.734375 102.285156 C 157.445312 102.304688 157.160156 102.339844 156.875 102.390625 C 156.59375 102.441406 156.3125 102.507812 156.035156 102.59375 C 155.761719 102.675781 155.492188 102.777344 155.226562 102.890625 C 154.960938 103.007812 154.707031 103.136719 154.457031 103.28125 C 154.207031 103.425781 153.96875 103.585938 153.738281 103.757812 C 153.507812 103.933594 153.285156 104.117188 153.078125 104.316406 C 152.867188 104.515625 152.671875 104.726562 152.488281 104.949219 C 152.300781 105.167969 152.128906 105.402344 151.972656 105.644531 C 151.816406 105.882812 151.671875 106.132812 151.542969 106.390625 C 151.414062 106.652344 151.300781 106.914062 151.203125 107.1875 C 151.105469 107.457031 151.023438 107.734375 150.957031 108.015625 C 150.890625 108.296875 150.839844 108.582031 150.808594 108.867188 C 150.773438 109.15625 150.757812 109.441406 150.757812 109.730469 C 150.757812 109.75 150.761719 109.765625 150.761719 109.785156 C 147.574219 111.125 144.476562 112.65625 141.472656 114.371094 C 138.46875 116.089844 135.582031 117.980469 132.804688 120.050781 C 130.03125 122.117188 127.390625 124.34375 124.886719 126.730469 C 122.382812 129.121094 120.027344 131.648438 117.832031 134.324219 C 115.632812 136.996094 113.601562 139.792969 111.742188 142.714844 C 109.878906 145.632812 108.203125 148.65625 106.707031 151.777344 C 105.210938 154.902344 103.910156 158.105469 102.800781 161.386719 C 101.695312 164.667969 100.789062 168.003906 100.082031 171.394531 C 99.765625 171.453125 99.453125 171.535156 99.144531 171.636719 C 98.835938 171.734375 98.535156 171.855469 98.242188 171.996094 C 97.949219 172.136719 97.667969 172.296875 97.394531 172.472656 C 97.121094 172.648438 96.863281 172.84375 96.617188 173.054688 C 96.371094 173.265625 96.136719 173.492188 95.921875 173.734375 C 95.703125 173.976562 95.503906 174.230469 95.320312 174.5 C 95.136719 174.765625 94.96875 175.046875 94.824219 175.335938 C 94.675781 175.625 94.546875 175.921875 94.4375 176.226562 C 94.332031 176.535156 94.242188 176.847656 94.175781 177.164062 C 94.105469 177.480469 94.058594 177.800781 94.035156 178.125 C 94.007812 178.449219 94.003906 178.773438 94.019531 179.097656 C 94.035156 179.421875 94.074219 179.746094 94.132812 180.066406 C 94.1875 180.386719 94.269531 180.699219 94.367188 181.007812 C 94.46875 181.316406 94.585938 181.621094 94.726562 181.914062 C 94.863281 182.207031 95.019531 182.492188 95.195312 182.765625 C 95.371094 183.035156 95.566406 183.296875 95.773438 183.546875 C 95.984375 183.792969 96.210938 184.027344 96.449219 184.246094 C 96.691406 184.464844 96.945312 184.664062 97.210938 184.851562 C 97.476562 185.035156 97.753906 185.203125 98.042969 185.351562 C 98.332031 185.5 98.628906 185.628906 98.933594 185.738281 C 99.238281 185.851562 99.550781 185.941406 99.867188 186.007812 C 100.183594 186.078125 100.503906 186.125 100.828125 186.152344 C 101.148438 186.179688 101.472656 186.1875 101.796875 186.171875 C 102.121094 186.15625 102.441406 186.121094 102.761719 186.066406 C 103.082031 186.007812 103.394531 185.929688 103.707031 185.832031 C 104.015625 185.734375 104.316406 185.617188 104.609375 185.476562 C 104.902344 185.339844 105.1875 185.183594 105.460938 185.007812 C 105.734375 184.832031 105.996094 184.640625 106.242188 184.433594 C 106.492188 184.222656 106.726562 184 106.945312 183.757812 C 107.164062 183.519531 107.367188 183.265625 107.550781 183 C 107.738281 182.734375 107.90625 182.457031 108.054688 182.167969 C 108.207031 181.882812 108.335938 181.585938 108.449219 181.277344 L 120.066406 181.277344 C 119.359375 187.324219 119.5 193.347656 120.484375 199.351562 C 120.484375 199.359375 120.488281 199.367188 120.488281 199.375 C 120.511719 199.511719 120.546875 199.644531 120.59375 199.773438 C 120.597656 199.792969 120.605469 199.8125 120.613281 199.832031 C 120.660156 199.957031 120.714844 200.074219 120.777344 200.191406 C 120.789062 200.210938 120.804688 200.230469 120.816406 200.253906 C 120.882812 200.363281 120.957031 200.46875 121.035156 200.566406 C 121.050781 200.582031 121.0625 200.59375 121.074219 200.609375 C 121.152344 200.699219 121.238281 200.785156 121.332031 200.863281 C 121.34375 200.878906 121.355469 200.890625 121.371094 200.902344 C 121.46875 200.980469 121.570312 201.054688 121.679688 201.121094 C 121.703125 201.132812 121.722656 201.148438 121.746094 201.160156 C 121.851562 201.21875 121.964844 201.273438 122.078125 201.316406 C 122.105469 201.328125 122.132812 201.339844 122.164062 201.347656 C 122.277344 201.390625 122.398438 201.421875 122.515625 201.445312 C 122.546875 201.449219 122.578125 201.453125 122.609375 201.460938 C 122.722656 201.476562 122.839844 201.488281 122.957031 201.488281 C 122.972656 201.488281 122.984375 201.496094 123 201.496094 C 123.007812 201.496094 123.015625 201.496094 123.019531 201.496094 L 151.585938 201.496094 L 151.585938 216.042969 L 143.761719 218.191406 C 143.480469 218.265625 143.21875 218.390625 142.980469 218.554688 C 142.742188 218.722656 142.535156 218.921875 142.367188 219.15625 C 142.195312 219.394531 142.070312 219.652344 141.988281 219.929688 C 141.90625 220.210938 141.871094 220.496094 141.886719 220.785156 L 142.550781 233.835938 C 142.566406 234.148438 142.636719 234.445312 142.761719 234.730469 C 142.886719 235.015625 143.058594 235.269531 143.273438 235.496094 C 143.492188 235.71875 143.742188 235.894531 144.023438 236.027344 C 144.304688 236.15625 144.601562 236.234375 144.910156 236.257812 C 151.488281 236.746094 158.164062 237.066406 164.796875 237.222656 L 164.796875 247.535156 C 164.796875 247.871094 164.859375 248.199219 164.988281 248.511719 C 165.117188 248.824219 165.304688 249.101562 165.542969 249.34375 C 165.78125 249.582031 166.058594 249.765625 166.371094 249.894531 C 166.683594 250.027344 167.011719 250.089844 167.347656 250.089844 L 179.5 250.089844 C 179.839844 250.089844 180.164062 250.027344 180.476562 249.894531 C 180.789062 249.765625 181.066406 249.582031 181.304688 249.34375 C 181.546875 249.101562 181.730469 248.824219 181.859375 248.511719 C 181.988281 248.199219 182.054688 247.871094 182.054688 247.535156 L 182.054688 237.253906 C 183.320312 237.226562 184.519531 237.195312 185.652344 237.15625 L 185.652344 247.53125 C 185.652344 247.871094 185.71875 248.199219 185.847656 248.511719 C 185.976562 248.824219 186.164062 249.101562 186.402344 249.339844 C 186.640625 249.582031 186.917969 249.765625 187.230469 249.894531 C 187.542969 250.023438 187.867188 250.089844 188.207031 250.089844 L 200.359375 250.089844 C 200.699219 250.089844 201.023438 250.023438 201.335938 249.894531 C 201.648438 249.765625 201.925781 249.582031 202.164062 249.339844 C 202.40625 249.101562 202.589844 248.824219 202.71875 248.511719 C 202.847656 248.199219 202.914062 247.871094 202.914062 247.53125 L 202.914062 234.871094 C 209.71875 233 215.136719 229.878906 219.046875 225.570312 C 223.898438 220.226562 226.359375 213.152344 226.359375 204.542969 C 226.359375 203.523438 226.300781 202.507812 226.191406 201.492188 L 241.621094 201.492188 C 240.9375 204.636719 240 207.707031 238.808594 210.695312 C 238.597656 210.675781 238.382812 210.664062 238.167969 210.664062 C 237.59375 210.660156 237.03125 210.726562 236.472656 210.855469 C 235.917969 210.984375 235.382812 211.175781 234.867188 211.429688 C 234.355469 211.679688 233.875 211.988281 233.433594 212.351562 C 232.992188 212.714844 232.59375 213.121094 232.246094 213.574219 C 231.898438 214.03125 231.605469 214.515625 231.367188 215.039062 C 231.132812 215.558594 230.957031 216.101562 230.84375 216.664062 C 230.730469 217.222656 230.683594 217.792969 230.703125 218.363281 C 230.71875 218.9375 230.800781 219.5 230.949219 220.054688 C 231.09375 220.605469 231.304688 221.136719 231.570312 221.640625 C 231.839844 222.148438 232.164062 222.617188 232.539062 223.046875 C 232.914062 223.480469 233.335938 223.863281 233.800781 224.195312 C 234.261719 224.53125 234.757812 224.808594 235.289062 225.03125 C 235.816406 225.25 236.359375 225.40625 236.925781 225.5 C 237.488281 225.597656 238.054688 225.625 238.628906 225.589844 C 239.199219 225.554688 239.757812 225.453125 240.304688 225.289062 C 240.851562 225.121094 241.375 224.898438 241.871094 224.613281 C 242.367188 224.328125 242.824219 223.988281 243.242188 223.597656 C 243.660156 223.207031 244.027344 222.773438 244.347656 222.300781 C 244.664062 221.824219 244.925781 221.316406 245.128906 220.78125 C 245.332031 220.246094 245.472656 219.695312 245.546875 219.128906 C 245.625 218.558594 245.632812 217.992188 245.578125 217.421875 C 245.527344 216.851562 245.40625 216.292969 245.222656 215.75 C 245.042969 215.207031 244.800781 214.691406 244.5 214.207031 C 244.199219 213.71875 243.847656 213.273438 243.445312 212.867188 C 244.929688 209.179688 246.0625 205.390625 246.839844 201.492188 L 259.261719 201.492188 C 259.890625 203.207031 261 204.519531 262.585938 205.421875 C 257.222656 231.019531 239.238281 252.867188 215.152344 263.078125 C 214.960938 262.859375 214.761719 262.652344 214.550781 262.457031 C 214.339844 262.261719 214.117188 262.078125 213.882812 261.910156 C 213.648438 261.738281 213.40625 261.585938 213.15625 261.441406 C 212.90625 261.300781 212.648438 261.175781 212.378906 261.0625 C 212.113281 260.953125 211.84375 260.855469 211.566406 260.777344 C 211.289062 260.695312 211.007812 260.632812 210.722656 260.585938 C 210.441406 260.539062 210.152344 260.507812 209.867188 260.496094 C 209.578125 260.480469 209.289062 260.484375 209.003906 260.503906 C 208.714844 260.523438 208.429688 260.558594 208.144531 260.613281 C 207.863281 260.667969 207.582031 260.734375 207.308594 260.820312 C 207.03125 260.90625 206.761719 261.007812 206.5 261.125 C 206.234375 261.242188 205.980469 261.375 205.730469 261.519531 C 205.484375 261.667969 205.246094 261.828125 205.015625 262 C 204.785156 262.175781 204.566406 262.363281 204.359375 262.5625 C 204.152344 262.761719 203.957031 262.976562 203.773438 263.199219 C 203.589844 263.421875 203.417969 263.652344 203.261719 263.894531 C 203.105469 264.136719 202.964844 264.390625 202.835938 264.648438 C 202.710938 264.90625 202.597656 265.171875 202.5 265.445312 C 202.40625 265.71875 202.324219 265.992188 202.261719 266.273438 C 202.195312 266.558594 202.148438 266.839844 202.117188 267.128906 C 202.085938 267.414062 202.070312 267.703125 202.074219 267.992188 C 202.074219 268.28125 202.09375 268.566406 202.128906 268.855469 C 202.164062 269.140625 202.21875 269.425781 202.285156 269.703125 C 202.355469 269.984375 202.4375 270.261719 202.539062 270.53125 C 202.640625 270.800781 202.753906 271.066406 202.886719 271.324219 C 203.015625 271.582031 203.164062 271.828125 203.324219 272.070312 C 203.480469 272.308594 203.65625 272.539062 203.84375 272.761719 C 204.027344 272.980469 204.226562 273.1875 204.4375 273.386719 C 204.648438 273.582031 204.871094 273.765625 205.101562 273.9375 C 205.335938 274.109375 205.574219 274.265625 205.828125 274.410156 C 206.078125 274.550781 206.335938 274.679688 206.601562 274.792969 C 206.867188 274.90625 207.136719 275.003906 207.414062 275.085938 C 207.6875 275.164062 207.96875 275.230469 208.253906 275.28125 C 208.539062 275.328125 208.824219 275.359375 209.113281 275.375 C 209.398438 275.390625 209.6875 275.390625 209.976562 275.371094 C 210.261719 275.355469 210.546875 275.320312 210.832031 275.269531 C 211.117188 275.21875 211.394531 275.148438 211.671875 275.066406 C 211.945312 274.980469 212.21875 274.882812 212.480469 274.765625 C 212.746094 274.652344 213.003906 274.523438 213.25 274.375 C 213.5 274.230469 213.742188 274.070312 213.972656 273.898438 C 214.203125 273.726562 214.421875 273.539062 214.628906 273.339844 C 214.839844 273.140625 215.035156 272.933594 215.222656 272.710938 C 215.40625 272.488281 215.578125 272.257812 215.734375 272.015625 C 215.894531 271.773438 216.035156 271.523438 216.164062 271.265625 C 216.292969 271.007812 216.40625 270.742188 216.503906 270.472656 C 216.601562 270.199219 216.683594 269.921875 216.75 269.640625 C 216.816406 269.359375 216.867188 269.078125 216.898438 268.789062 C 216.933594 268.503906 216.949219 268.214844 216.949219 267.925781 C 216.949219 267.910156 216.945312 267.890625 216.945312 267.871094 C 220.132812 266.53125 223.230469 265.003906 226.234375 263.285156 C 229.238281 261.570312 232.125 259.675781 234.902344 257.609375 C 237.675781 255.542969 240.316406 253.3125 242.820312 250.925781 C 245.328125 248.539062 247.679688 246.007812 249.878906 243.335938 C 252.078125 240.660156 254.105469 237.863281 255.96875 234.945312 C 257.828125 232.023438 259.507812 229.003906 261 225.878906 C 262.496094 222.757812 263.796875 219.554688 264.90625 216.273438 C 266.015625 212.992188 266.921875 209.65625 267.625 206.265625 C 268.078125 206.179688 268.515625 206.054688 268.945312 205.886719 C 269.375 205.71875 269.785156 205.515625 270.175781 205.273438 C 270.566406 205.03125 270.929688 204.753906 271.269531 204.441406 C 271.609375 204.132812 271.917969 203.792969 272.195312 203.425781 C 272.472656 203.058594 272.714844 202.667969 272.917969 202.253906 C 273.121094 201.84375 273.289062 201.414062 273.414062 200.972656 C 273.539062 200.527344 273.621094 200.078125 273.664062 199.617188 C 273.707031 199.160156 273.707031 198.699219 273.664062 198.242188 C 273.621094 197.78125 273.535156 197.332031 273.410156 196.890625 C 273.285156 196.445312 273.117188 196.019531 272.914062 195.605469 C 272.707031 195.195312 272.46875 194.804688 272.191406 194.4375 C 271.914062 194.070312 271.605469 193.730469 271.265625 193.421875 C 270.921875 193.109375 270.558594 192.835938 270.167969 192.59375 C 269.777344 192.347656 269.367188 192.144531 268.9375 191.980469 C 268.507812 191.8125 268.066406 191.6875 267.617188 191.601562 C 267.164062 191.519531 266.707031 191.476562 266.246094 191.476562 Z M 212.988281 135.4375 C 212.988281 135.128906 213.046875 134.828125 213.164062 134.542969 C 213.285156 134.253906 213.453125 134 213.671875 133.78125 C 213.890625 133.5625 214.144531 133.390625 214.429688 133.273438 C 214.71875 133.152344 215.015625 133.09375 215.328125 133.09375 C 215.636719 133.09375 215.9375 133.152344 216.222656 133.273438 C 216.507812 133.390625 216.761719 133.5625 216.980469 133.78125 C 217.203125 134 217.371094 134.253906 217.488281 134.542969 C 217.609375 134.828125 217.667969 135.128906 217.667969 135.4375 C 217.667969 135.75 217.609375 136.050781 217.488281 136.335938 C 217.371094 136.625 217.203125 136.878906 216.980469 137.097656 C 216.761719 137.316406 216.507812 137.484375 216.222656 137.605469 C 215.9375 137.722656 215.636719 137.785156 215.328125 137.785156 C 215.015625 137.78125 214.71875 137.722656 214.433594 137.605469 C 214.144531 137.484375 213.890625 137.316406 213.671875 137.097656 C 213.453125 136.875 213.285156 136.621094 213.164062 136.335938 C 213.046875 136.046875 212.988281 135.75 212.988281 135.4375 Z M 129.542969 157.191406 C 129.71875 157.191406 129.894531 157.210938 130.070312 157.25 C 130.242188 157.289062 130.410156 157.351562 130.570312 157.429688 C 130.730469 157.507812 130.878906 157.601562 131.015625 157.714844 C 131.15625 157.828125 131.277344 157.953125 131.386719 158.09375 C 131.496094 158.234375 131.589844 158.386719 131.664062 158.546875 C 131.742188 158.710938 131.796875 158.878906 131.832031 159.050781 C 131.871094 159.226562 131.886719 159.402344 131.882812 159.582031 C 131.878906 159.757812 131.855469 159.933594 131.8125 160.109375 C 131.769531 160.28125 131.707031 160.445312 131.625 160.605469 C 131.542969 160.765625 131.445312 160.910156 131.332031 161.046875 C 131.214844 161.183594 131.085938 161.304688 130.945312 161.414062 C 130.800781 161.519531 130.648438 161.609375 130.488281 161.679688 C 130.324219 161.753906 130.15625 161.804688 129.980469 161.839844 C 129.804688 161.871094 129.628906 161.886719 129.449219 161.878906 C 129.273438 161.871094 129.097656 161.84375 128.925781 161.796875 C 128.753906 161.75 128.589844 161.683594 128.433594 161.597656 L 128.425781 161.597656 C 128.195312 161.472656 127.996094 161.3125 127.816406 161.121094 C 127.640625 160.929688 127.5 160.714844 127.398438 160.476562 C 127.292969 160.238281 127.230469 159.988281 127.210938 159.726562 C 127.1875 159.46875 127.210938 159.210938 127.273438 158.957031 C 127.335938 158.707031 127.441406 158.472656 127.582031 158.253906 C 127.726562 158.035156 127.898438 157.84375 128.105469 157.683594 C 128.308594 157.523438 128.535156 157.402344 128.78125 157.316406 C 129.027344 157.234375 129.28125 157.191406 129.542969 157.191406 Z M 158.207031 107.386719 C 158.519531 107.386719 158.816406 107.445312 159.105469 107.566406 C 159.390625 107.683594 159.644531 107.855469 159.863281 108.074219 C 160.082031 108.292969 160.253906 108.546875 160.371094 108.835938 C 160.488281 109.121094 160.550781 109.421875 160.550781 109.730469 C 160.550781 110.042969 160.488281 110.339844 160.371094 110.628906 C 160.253906 110.914062 160.082031 111.167969 159.863281 111.390625 C 159.644531 111.609375 159.390625 111.777344 159.105469 111.898438 C 158.816406 112.015625 158.519531 112.074219 158.207031 112.074219 C 157.898438 112.074219 157.597656 112.015625 157.3125 111.898438 C 157.027344 111.777344 156.773438 111.609375 156.554688 111.390625 C 156.332031 111.167969 156.164062 110.914062 156.046875 110.628906 C 155.925781 110.339844 155.867188 110.042969 155.867188 109.730469 C 155.867188 109.421875 155.929688 109.121094 156.046875 108.835938 C 156.164062 108.546875 156.335938 108.292969 156.554688 108.074219 C 156.773438 107.855469 157.027344 107.683594 157.3125 107.566406 C 157.601562 107.445312 157.898438 107.386719 158.207031 107.386719 Z M 101.460938 181.066406 C 101.152344 181.066406 100.855469 181.007812 100.566406 180.886719 C 100.28125 180.769531 100.027344 180.601562 99.808594 180.378906 C 99.589844 180.160156 99.417969 179.90625 99.300781 179.621094 C 99.179688 179.332031 99.121094 179.035156 99.121094 178.722656 C 99.121094 178.410156 99.179688 178.113281 99.300781 177.824219 C 99.417969 177.539062 99.589844 177.285156 99.808594 177.066406 C 100.027344 176.84375 100.28125 176.675781 100.566406 176.554688 C 100.855469 176.4375 101.152344 176.378906 101.460938 176.378906 C 101.773438 176.378906 102.070312 176.4375 102.359375 176.554688 C 102.644531 176.675781 102.898438 176.84375 103.117188 177.066406 C 103.335938 177.285156 103.507812 177.539062 103.625 177.824219 C 103.742188 178.113281 103.804688 178.410156 103.804688 178.722656 C 103.804688 179.03125 103.742188 179.332031 103.625 179.621094 C 103.503906 179.90625 103.335938 180.160156 103.117188 180.378906 C 102.898438 180.597656 102.644531 180.769531 102.359375 180.886719 C 102.070312 181.007812 101.773438 181.066406 101.460938 181.066406 Z M 238.167969 220.46875 C 237.855469 220.46875 237.558594 220.410156 237.269531 220.289062 C 236.984375 220.171875 236.730469 220 236.511719 219.78125 C 236.292969 219.5625 236.125 219.308594 236.003906 219.019531 C 235.886719 218.734375 235.828125 218.433594 235.828125 218.125 C 235.828125 217.8125 235.886719 217.511719 236.003906 217.226562 C 236.125 216.9375 236.292969 216.683594 236.511719 216.464844 C 236.730469 216.246094 236.984375 216.074219 237.269531 215.957031 C 237.558594 215.839844 237.855469 215.777344 238.167969 215.777344 C 238.476562 215.777344 238.777344 215.839844 239.0625 215.957031 C 239.347656 216.074219 239.601562 216.246094 239.820312 216.464844 C 240.042969 216.683594 240.210938 216.9375 240.328125 217.226562 C 240.449219 217.511719 240.507812 217.8125 240.507812 218.125 C 240.507812 218.433594 240.449219 218.734375 240.328125 219.019531 C 240.210938 219.308594 240.039062 219.558594 239.820312 219.78125 C 239.601562 220 239.347656 220.167969 239.0625 220.289062 C 238.777344 220.40625 238.476562 220.46875 238.167969 220.46875 Z M 125.210938 196.378906 C 124.570312 191.34375 124.570312 186.3125 125.207031 181.28125 L 151.585938 181.28125 L 151.585938 196.378906 Z M 215.265625 222.128906 C 211.699219 226.0625 206.488281 228.839844 199.785156 230.386719 C 199.503906 230.453125 199.238281 230.5625 198.996094 230.714844 C 198.75 230.871094 198.539062 231.058594 198.359375 231.285156 C 198.179688 231.511719 198.042969 231.761719 197.949219 232.035156 C 197.851562 232.308594 197.804688 232.589844 197.804688 232.878906 L 197.804688 244.972656 L 190.761719 244.972656 L 190.761719 234.492188 C 190.761719 234.140625 190.691406 233.804688 190.554688 233.484375 C 190.417969 233.160156 190.222656 232.878906 189.96875 232.640625 C 189.714844 232.398438 189.425781 232.214844 189.097656 232.09375 C 188.769531 231.972656 188.433594 231.917969 188.082031 231.9375 C 185.644531 232.054688 182.746094 232.136719 179.46875 232.179688 C 179.132812 232.183594 178.808594 232.25 178.5 232.382812 C 178.191406 232.515625 177.917969 232.699219 177.683594 232.9375 C 177.449219 233.179688 177.265625 233.453125 177.136719 233.765625 C 177.011719 234.074219 176.945312 234.398438 176.945312 234.734375 L 176.945312 244.972656 L 169.902344 244.972656 L 169.902344 234.714844 C 169.902344 234.378906 169.839844 234.054688 169.710938 233.746094 C 169.585938 233.433594 169.402344 233.160156 169.167969 232.921875 C 168.933594 232.683594 168.664062 232.496094 168.355469 232.363281 C 168.046875 232.230469 167.726562 232.164062 167.390625 232.15625 C 160.785156 232.046875 154.117188 231.761719 147.535156 231.316406 L 147.089844 222.578125 L 154.816406 220.457031 C 155.085938 220.382812 155.335938 220.269531 155.566406 220.113281 C 155.800781 219.953125 156 219.765625 156.171875 219.542969 C 156.339844 219.320312 156.46875 219.074219 156.558594 218.808594 C 156.648438 218.542969 156.695312 218.269531 156.695312 217.992188 L 156.695312 167.257812 C 156.695312 164.46875 156.453125 162.71875 155.917969 161.570312 C 155.289062 160.238281 153.984375 159.164062 151.9375 158.292969 L 146.566406 155.292969 L 147.097656 147.957031 C 154.429688 147.039062 161.292969 146.363281 167.515625 145.953125 C 167.839844 145.929688 168.148438 145.851562 168.441406 145.710938 C 168.734375 145.570312 168.992188 145.382812 169.210938 145.148438 C 169.433594 144.910156 169.601562 144.640625 169.722656 144.339844 C 169.839844 144.039062 169.898438 143.722656 169.898438 143.398438 L 169.898438 132.683594 L 176.945312 132.683594 L 176.945312 142.902344 C 176.945312 143.242188 177.011719 143.570312 177.144531 143.886719 C 177.277344 144.203125 177.460938 144.480469 177.707031 144.722656 C 177.949219 144.960938 178.226562 145.144531 178.542969 145.273438 C 178.859375 145.402344 179.191406 145.464844 179.53125 145.460938 C 182.523438 145.421875 185.382812 145.46875 188.054688 145.628906 C 188.40625 145.652344 188.746094 145.601562 189.078125 145.480469 C 189.410156 145.359375 189.703125 145.179688 189.957031 144.9375 C 190.214844 144.695312 190.410156 144.414062 190.550781 144.089844 C 190.691406 143.765625 190.761719 143.429688 190.761719 143.078125 L 190.761719 132.683594 L 197.804688 132.683594 L 197.804688 144.828125 C 197.804688 145.109375 197.851562 145.386719 197.945312 145.65625 C 198.035156 145.925781 198.167969 146.171875 198.34375 146.394531 C 198.519531 146.621094 198.722656 146.8125 198.960938 146.964844 C 199.199219 147.121094 199.457031 147.234375 199.730469 147.304688 C 202.644531 147.980469 205.378906 149.09375 207.941406 150.636719 C 213.046875 153.894531 215.53125 158.980469 215.53125 166.191406 C 215.597656 169.507812 215.039062 172.714844 213.859375 175.8125 C 212.679688 178.660156 210.972656 181.140625 208.738281 183.257812 C 208.585938 183.402344 208.457031 183.566406 208.34375 183.742188 C 208.234375 183.917969 208.148438 184.105469 208.082031 184.304688 C 208.015625 184.503906 207.976562 184.707031 207.960938 184.914062 C 207.945312 185.125 207.957031 185.332031 207.992188 185.539062 C 208.027344 185.742188 208.089844 185.941406 208.171875 186.132812 C 208.257812 186.324219 208.363281 186.5 208.492188 186.667969 C 208.617188 186.832031 208.765625 186.980469 208.929688 187.109375 C 209.09375 187.238281 209.269531 187.34375 209.460938 187.429688 C 217.390625 191.007812 221.25 196.605469 221.25 204.542969 C 221.25 211.839844 219.238281 217.757812 215.265625 222.128906 Z M 225.050781 196.378906 C 223.3125 191.386719 219.84375 187.363281 214.660156 184.355469 C 215.453125 183.378906 216.171875 182.355469 216.820312 181.28125 L 242.496094 181.28125 C 243.136719 186.3125 243.136719 191.34375 242.503906 196.378906 Z M 209.5 270.273438 C 209.1875 270.273438 208.890625 270.210938 208.605469 270.09375 C 208.316406 269.972656 208.0625 269.804688 207.84375 269.585938 C 207.625 269.367188 207.457031 269.113281 207.335938 268.824219 C 207.21875 268.539062 207.160156 268.238281 207.160156 267.925781 C 207.160156 267.617188 207.21875 267.316406 207.335938 267.03125 C 207.457031 266.742188 207.625 266.488281 207.84375 266.269531 C 208.0625 266.050781 208.316406 265.878906 208.605469 265.761719 C 208.890625 265.640625 209.1875 265.582031 209.5 265.582031 C 209.808594 265.582031 210.109375 265.640625 210.394531 265.761719 C 210.683594 265.878906 210.933594 266.050781 211.15625 266.269531 C 211.375 266.488281 211.542969 266.742188 211.660156 267.03125 C 211.78125 267.316406 211.839844 267.617188 211.839844 267.925781 C 211.839844 268.238281 211.78125 268.539062 211.660156 268.824219 C 211.542969 269.109375 211.371094 269.363281 211.152344 269.585938 C 210.933594 269.804688 210.679688 269.972656 210.394531 270.09375 C 210.109375 270.210938 209.808594 270.273438 209.5 270.273438 Z M 266.246094 201.28125 C 265.933594 201.28125 265.636719 201.21875 265.347656 201.101562 C 265.0625 200.984375 264.808594 200.8125 264.589844 200.59375 C 264.371094 200.375 264.203125 200.121094 264.082031 199.832031 C 263.964844 199.546875 263.90625 199.246094 263.90625 198.933594 C 263.90625 198.625 263.964844 198.324219 264.082031 198.039062 C 264.203125 197.75 264.371094 197.496094 264.589844 197.277344 C 264.808594 197.058594 265.0625 196.886719 265.347656 196.769531 C 265.636719 196.648438 265.933594 196.589844 266.246094 196.589844 C 266.554688 196.589844 266.855469 196.648438 267.140625 196.769531 C 267.425781 196.886719 267.679688 197.058594 267.898438 197.277344 C 268.121094 197.496094 268.289062 197.75 268.40625 198.039062 C 268.527344 198.324219 268.585938 198.625 268.585938 198.933594 C 268.585938 199.246094 268.527344 199.546875 268.40625 199.832031 C 268.289062 200.121094 268.117188 200.371094 267.898438 200.59375 C 267.679688 200.8125 267.425781 200.980469 267.140625 201.101562 C 266.855469 201.21875 266.554688 201.28125 266.246094 201.28125 Z M 266.246094 201.28125 " fill-opacity="1" fill-rule="nonzero"/></svg>